<svg xmlns="http://www.w3.org/2000/svg" viewBox="0 0 34.04 36.82"><defs><style>.cls-1{fill:#979797;}.cls-2,.cls-3{fill:none;stroke:#979797;}.cls-2{stroke-linecap:round;stroke-linejoin:round;stroke-width:2px;}.cls-3{stroke-miterlimit:10;stroke-width:1.77px;}</style></defs><title>icon_pig</title><g id="Ebene_2" data-name="Ebene 2"><g id="Ebene_1-2" data-name="Ebene 1"><path class="cls-1" d="M24.75,9.71A9.86,9.86,0,0,1,29,11.13a12.61,12.61,0,0,1-2,3.2c3.45,2.38,2.58,4.9,2.58,4.9a4.82,4.82,0,0,1,1.31.59A2.31,2.31,0,0,1,32,22.38c-.6,2.49-.95,4.51-2,4.75a7.16,7.16,0,0,0-2.38,1.37,10.64,10.64,0,0,1-3.32,2.61,11.52,11.52,0,0,1-1.19.65A13.55,13.55,0,0,0,23,33.25c0,.89-.48,1.48-1,1.54H18c-1.13,0-1.43-1.78-1.43-1.78l-1.18-.18-1.91-.3a2.07,2.07,0,0,1,.06.72c0,1.48-.71,1.54-1.36,1.54h-.36c-.59,0-1.53,0-2.35,0-.41,0-.8,0-1.09,0-1-.06-1-1.13-1.49-4.22S2.34,25.11,4.24,19.41c.2-.55-2.53-1.93-2.2-2.6a.31.31,0,0,1,.29-.16,2.81,2.81,0,0,1,1.11.48c.35.2.25.1.42.2a.67.67,0,0,0,.33.08,2.12,2.12,0,0,0,1.21-.67,11.48,11.48,0,0,1,10.27-6,17.83,17.83,0,0,1,6,1.13,2.94,2.94,0,0,1,2.31-2c.12,0,.18-.06.24-.06a3.68,3.68,0,0,1,.58,0m1.4,10.19a1.67,1.67,0,1,0-1.68-1.67,1.69,1.69,0,0,0,1.68,1.67M24.75,7.71a6,6,0,0,0-.86.07l-.22,0h0l-.25.07a5.4,5.4,0,0,0-2.7,1.57,18.4,18.4,0,0,0-5-.75A13.4,13.4,0,0,0,4,15.15a3.66,3.66,0,0,0-1.69-.5A2.29,2.29,0,0,0,.26,15.91c-.91,1.8.79,3.17,1.7,3.9l.07.06c-1,4.06.63,6.74,1.82,8.74a7.81,7.81,0,0,1,1.09,2.31c.1.55.17,1,.24,1.47.33,2.09.67,4.26,3.1,4.4.29,0,.69,0,1.21,0l1.39,0H12.2a3,3,0,0,0,3-1.75A3.2,3.2,0,0,0,18,36.79h4.2A3.35,3.35,0,0,0,25,33.25V33l.28-.17a12.33,12.33,0,0,0,3.78-3,4.85,4.85,0,0,1,1.32-.78c2.19-.49,2.73-2.81,3.36-5.51l.17-.7a4.32,4.32,0,0,0-2-4.75L31.68,18A6.71,6.71,0,0,0,29.73,14a11.85,11.85,0,0,0,1.13-2.19l.57-1.53L30,9.43a11.57,11.57,0,0,0-5.28-1.72Z"/><path class="cls-2" d="M12.38,13.06a9.71,9.71,0,0,1,6.54-.19"/><circle class="cls-3" cx="15.1" cy="3.77" r="2.88"/></g></g></svg>