<svg xmlns="http://www.w3.org/2000/svg" viewBox="0 0 33.82 33.56"><defs><style>.cls-1{fill:none;stroke:#979797;stroke-linecap:round;stroke-miterlimit:10;stroke-width:2px;}.cls-2{fill:#979797;}</style></defs><title>icon_exchange_1</title><g id="Ebene_2" data-name="Ebene 2"><g id="Ebene_1-2" data-name="Ebene 1"><rect class="cls-1" x="1" y="15.52" width="17.04" height="17.04" rx="1.66" ry="1.66"/><polyline class="cls-1" points="6.24 1 1.91 5.33 6.24 9.66"/><path class="cls-1" d="M3.1,5.33H23.47a9.36,9.36,0,0,1,0,18.71"/><path class="cls-2" d="M15.74,28.94a.14.14,0,0,0,0-.11l-1.18-1.18a.11.11,0,0,0-.14,0l-1.18,1.18a.08.08,0,0,0,0,.1.09.09,0,0,0,.09.06h.6v1.15a.1.1,0,0,0,.1.09h1a.09.09,0,0,0,.09-.09V29h.61A.1.1,0,0,0,15.74,28.94Z"/><path class="cls-2" d="M12.78,28.94a.11.11,0,0,0,0-.11l-1.18-1.18a.11.11,0,0,0-.14,0l-1.18,1.18s0,.06,0,.1a.1.1,0,0,0,.09.06h.6v1.15a.1.1,0,0,0,.1.09h1a.1.1,0,0,0,.1-.09V29h.6A.1.1,0,0,0,12.78,28.94Z"/><rect class="cls-2" x="11.37" y="17.96" width="4.38" height="1.47" rx="0.35" ry="0.35"/></g></g></svg>