<?xml version="1.0" encoding="utf-8"?>
<!-- Generator: Adobe Illustrator 21.1.0, SVG Export Plug-In . SVG Version: 6.00 Build 0)  -->
<svg version="1.1" id="Ebene_1" xmlns="http://www.w3.org/2000/svg" xmlns:xlink="http://www.w3.org/1999/xlink" x="0px" y="0px"
	 width="56px" height="56px" viewBox="0 0 56 56" style="enable-background:new 0 0 56 56;" xml:space="preserve">
<style type="text/css">
	.st0{fill:#265489;}
</style>
<g>
	<path class="st0" d="M30.7,48h-7.2c-0.5,0-0.9-0.4-0.9-0.9V30.6h-2.7c-0.5,0-0.9-0.4-0.9-0.9v-6c0-0.5,0.4-0.9,0.9-0.9h2.7V20
		c0-5.8,2.8-8.7,8.7-8.7h4.9c0.5,0,0.9,0.4,0.9,0.9v6c0,0.5-0.4,0.9-0.9,0.9h-3c-1.5,0-1.5,0.2-1.5,1.5v2.1h4.5
		c0.3,0,0.5,0.1,0.7,0.3c0.2,0.2,0.3,0.4,0.2,0.7l-0.6,6c0,0.5-0.4,0.8-0.9,0.8h-3.9v16.4C31.6,47.6,31.2,48,30.7,48z M24.4,46.2
		h5.4V29.8c0-0.5,0.4-0.9,0.9-0.9h4l0.4-4.2h-4.4c-0.5,0-0.9-0.4-0.9-0.9v-3c0-1.8,0.3-3.3,3.3-3.3h2.1v-4.2h-4
		c-4.8,0-6.9,2.1-6.9,6.9v3.6c0,0.5-0.4,0.9-0.9,0.9h-2.7v4.2h2.7c0.5,0,0.9,0.4,0.9,0.9V46.2z"/>
</g>
</svg>
