<svg xmlns="http://www.w3.org/2000/svg" viewBox="0 0 297.86 36.47"><defs><style>.cls-1{fill:#555;}.cls-1,.cls-2{fill-rule:evenodd;}.cls-2{fill:#85d081;}.cls-3{fill:#979797;}.cls-4{fill:none;stroke:#979797;stroke-miterlimit:10;stroke-width:0.5px;}</style></defs><title>Element 1</title><g id="Ebene_2" data-name="Ebene 2"><g id="Ebene_2-2" data-name="Ebene 2"><g id="Logo_hut.de" data-name="Logo hut.de"><path id="H" class="cls-1" d="M75.82.17a.2.2,0,0,0-.2.2V16.8a.2.2,0,0,1-.2.2H61.59a.2.2,0,0,1-.2-.2V.37a.2.2,0,0,0-.19-.2H59.78a.2.2,0,0,0-.19.2V35.54a.2.2,0,0,0,.19.2H61.2a.2.2,0,0,0,.19-.2V18.88a.2.2,0,0,1,.2-.2H75.42a.2.2,0,0,1,.2.2V35.54a.2.2,0,0,0,.2.2h1.41a.2.2,0,0,0,.2-.2V.37a.2.2,0,0,0-.2-.2Z"/><path id="U" class="cls-1" d="M100.7.17a.2.2,0,0,0-.2.2V27.12c0,2.39-.37,4.32-2.15,5.95a7.74,7.74,0,0,1-5.43,1.71,7.74,7.74,0,0,1-5.39-1.71c-1.78-1.63-2.15-3.56-2.15-5.95V.37a.2.2,0,0,0-.2-.2H83.77a.2.2,0,0,0-.2.2V26.83c0,3.35.68,5.35,2.42,7.1s4,2.54,7,2.54a9.35,9.35,0,0,0,6.94-2.54c1.73-1.75,2.41-3.75,2.41-7.1V.37a.2.2,0,0,0-.2-.2Z"/><path id="T" class="cls-1" d="M106.14.17a.2.2,0,0,0-.2.2V1.65a.2.2,0,0,0,.2.2h7.37a.2.2,0,0,1,.2.2V35.54a.2.2,0,0,0,.2.2h1.41a.2.2,0,0,0,.2-.2V2.05a.2.2,0,0,1,.2-.2h7.37a.2.2,0,0,0,.2-.2V.37a.2.2,0,0,0-.2-.2Z"/><path id="dot" class="cls-1" d="M124,32.93c-.12,0-.21.06-.21.13v2.57c0,.07.09.13.21.13h1.47c.11,0,.21-.06.21-.13V33.06c0-.07-.1-.13-.21-.13Z"/><path id="d" class="cls-1" d="M149.08.17a.2.2,0,0,0-.2.2v10c0,1.54,0,2.82,0,4a.19.19,0,0,1-.37.09,9.56,9.56,0,0,0-2.45-3.33,7,7,0,0,0-4.59-1.6,6.8,6.8,0,0,0-3.71,1.08A9.23,9.23,0,0,0,135,13.55a18.17,18.17,0,0,0-2.39,9.51A17.9,17.9,0,0,0,135,32.47a9.16,9.16,0,0,0,2.81,2.92,6.8,6.8,0,0,0,3.71,1.08,7.19,7.19,0,0,0,4.93-1.92,9.44,9.44,0,0,0,2.1-2.88.2.2,0,0,1,.38.09c0,1,0,2.27,0,3.89a.2.2,0,0,0,.2.2h1.32a.2.2,0,0,0,.2-.2V.37a.2.2,0,0,0-.2-.2Zm-.2,22.8a17.12,17.12,0,0,1-1.86,8.1c-1.64,3.07-3.86,3.71-5.43,3.71-4.79,0-7.3-5.92-7.3-11.76V23a17.43,17.43,0,0,1,1.85-8.11c.93-1.69,2.63-3.71,5.45-3.71,1.57,0,3.79.65,5.43,3.71h0A16.69,16.69,0,0,1,148.88,23Z"/><path id="e" class="cls-1" d="M173.7,17.79a12.35,12.35,0,0,0-2.12-4.92A8,8,0,0,0,165,9.54a8.19,8.19,0,0,0-3.88,1,9.24,9.24,0,0,0-3.06,2.71,16.62,16.62,0,0,0-2.72,9.85c0,6.19,2.58,13.42,9.85,13.42A8.22,8.22,0,0,0,171,34.22a10.41,10.41,0,0,0,2.86-5.35h0a.2.2,0,0,0-.2-.24h-1.23a.2.2,0,0,0-.2.15c-1,4.46-4.27,6-7,6a7,7,0,0,1-6-3.22,14.77,14.77,0,0,1-2.14-8,.2.2,0,0,1,.2-.21H174a.19.19,0,0,0,.19-.2A25.49,25.49,0,0,0,173.7,17.79Zm-16.4,3.92a.2.2,0,0,1-.2-.21,13.79,13.79,0,0,1,2.2-7.17,6.57,6.57,0,0,1,10.81-.6c1.41,1.79,2.19,4.4,2.33,7.77a.2.2,0,0,1-.2.21Z"/><path id="Bildmarke" class="cls-2" d="M47.66,17.62a16.58,16.58,0,0,0-5.34-4.2,28,28,0,0,0-4-1.72,13.75,13.75,0,0,0-3.83-7.5,13.62,13.62,0,0,0-19.34,0,13.75,13.75,0,0,0-3.83,7.5,28.49,28.49,0,0,0-4,1.72A16.69,16.69,0,0,0,2,17.62a8.26,8.26,0,0,0-2,5.2A8.28,8.28,0,0,0,2,28a16.81,16.81,0,0,0,5.34,4.19c4.68,2.48,10.89,3.84,17.5,3.84s12.83-1.36,17.5-3.84A16.7,16.7,0,0,0,47.66,28a8.22,8.22,0,0,0,2-5.2,8.2,8.2,0,0,0-2-5.2M13,13a41,41,0,0,1,11.86-1.66A41.07,41.07,0,0,1,36.69,13c0,.3,0,.6,0,.91a11.93,11.93,0,0,1-3.49,8.47,11.83,11.83,0,0,1-16.82,0A11.93,11.93,0,0,1,12.92,14c0-.31,0-.61,0-.91M24.82,9.58a43.49,43.49,0,0,0-11.56,1.51,12,12,0,0,1,3.15-5.62,11.83,11.83,0,0,1,16.82,0,11.91,11.91,0,0,1,3.15,5.62A43.44,43.44,0,0,0,24.82,9.58M15.15,23.69a13.59,13.59,0,0,0,19.34,0,13.71,13.71,0,0,0,4-9.74v-.29a25.71,25.71,0,0,1,3,1.35c4,2.17,6.36,5,6.36,7.81s-2.32,5.64-6.36,7.81C37.11,33,31.19,34.26,24.82,34.26S12.53,33,8.15,30.63c-4.05-2.17-6.37-5-6.37-7.81S4.1,17.18,8.15,15a24.29,24.29,0,0,1,3-1.35,2.81,2.81,0,0,0,0,.29,13.75,13.75,0,0,0,4,9.74"/></g><path class="cls-3" d="M193.24,9.5l.44-.9a4.91,4.91,0,0,0,1.55.91,5.69,5.69,0,0,0,1.84.28A3.16,3.16,0,0,0,199,9.3,1.57,1.57,0,0,0,199.63,8a1.13,1.13,0,0,0-.32-.84,2.39,2.39,0,0,0-.84-.51c-.35-.12-.82-.25-1.4-.39a12.78,12.78,0,0,1-1.94-.55,3,3,0,0,1-1.23-.87,2.22,2.22,0,0,1-.47-1.49,2.7,2.7,0,0,1,.45-1.54,3.09,3.09,0,0,1,1.3-1,4.76,4.76,0,0,1,2-.37,5.79,5.79,0,0,1,2,.33,4.15,4.15,0,0,1,1.55,1l-.46.9a5,5,0,0,0-1.46-.9,4.43,4.43,0,0,0-1.61-.29,3,3,0,0,0-1.86.51,1.67,1.67,0,0,0-.68,1.4,1.3,1.3,0,0,0,.59,1.16A5.92,5.92,0,0,0,197,5.1a20.58,20.58,0,0,1,2.07.58,3,3,0,0,1,1.25.8,2,2,0,0,1,.51,1.43,2.62,2.62,0,0,1-.46,1.51,3,3,0,0,1-1.32,1,5.07,5.07,0,0,1-2,.36A5.46,5.46,0,0,1,193.24,9.5Z"/><path class="cls-3" d="M204.11,4.38V8.32a1.56,1.56,0,0,0,.33,1.13,1.3,1.3,0,0,0,.93.32,2.19,2.19,0,0,0,.77-.13v1a3.1,3.1,0,0,1-1,.14,2.15,2.15,0,0,1-1.61-.58A2.28,2.28,0,0,1,203,8.48V4.38h-1.41V3.46H203V1.61l1.16-.41V3.46h2.06v.92Z"/><path class="cls-3" d="M208.77,10.32A3,3,0,0,1,207.57,9a4.38,4.38,0,0,1-.42-2,4.44,4.44,0,0,1,.42-2,3,3,0,0,1,1.2-1.3,3.71,3.71,0,0,1,3.58,0,3,3,0,0,1,1.2,1.3A4.44,4.44,0,0,1,214,7a4.38,4.38,0,0,1-.42,2,3,3,0,0,1-1.2,1.31,3.79,3.79,0,0,1-3.58,0Zm3.44-1.22A3.23,3.23,0,0,0,212.78,7a3.16,3.16,0,0,0-.58-2,2.22,2.22,0,0,0-3.29,0,3.16,3.16,0,0,0-.59,2,3.17,3.17,0,0,0,.59,2.07,2.27,2.27,0,0,0,3.3,0Z"/><path class="cls-3" d="M219.8,3.38l0,1.06a2.24,2.24,0,0,0-.76-.12,1.87,1.87,0,0,0-1.56.65,2.52,2.52,0,0,0-.51,1.59v4.11h-1.16V5.48a17.57,17.57,0,0,0-.11-2h1.1l.11,1.34a2.21,2.21,0,0,1,.88-1.12,2.48,2.48,0,0,1,1.38-.39A2.39,2.39,0,0,1,219.8,3.38Z"/><path class="cls-3" d="M226.87,7h-5.3a3.13,3.13,0,0,0,.64,2.08,2.3,2.3,0,0,0,1.82.7A3.66,3.66,0,0,0,226.35,9l.39.84a3.45,3.45,0,0,1-1.22.71,4.56,4.56,0,0,1-1.51.25,3.51,3.51,0,0,1-2.65-1,3.79,3.79,0,0,1-1-2.73,4.25,4.25,0,0,1,.43-2A3.29,3.29,0,0,1,222,3.76a3.39,3.39,0,0,1,1.77-.47,2.83,2.83,0,0,1,2.25.94,3.85,3.85,0,0,1,.82,2.59Zm-4.53-2.29a2.56,2.56,0,0,0-.72,1.53h4.2a2.5,2.5,0,0,0-.6-1.55,1.88,1.88,0,0,0-1.41-.53A2,2,0,0,0,222.34,4.74Z"/><path class="cls-3" d="M210.36,15.57h1.95V35.93h-2.18V20.8l-6.6,15.13h-1.66l-6.66-15,0,15h-2.17V15.57H195l7.72,17.55Z"/><path class="cls-3" d="M229.08,21.55V35.93h-2.25V33.44a4.76,4.76,0,0,1-1.92,2,5.55,5.55,0,0,1-2.77.69,5,5,0,0,1-3.86-1.43A6.06,6.06,0,0,1,217,30.47V21.55h2.32v8.86a4.28,4.28,0,0,0,.8,2.86,3,3,0,0,0,2.43.91,4,4,0,0,0,3.09-1.24,4.58,4.58,0,0,0,1.17-3.27V21.55Zm-9.77-6h2.57V18h-2.57Zm4.94,0h2.58V18h-2.58Z"/><path class="cls-3" d="M245.89,26.89v9h-2.31V27a4.44,4.44,0,0,0-.8-2.93,3.17,3.17,0,0,0-2.52-.93,4.27,4.27,0,0,0-3.2,1.23,4.53,4.53,0,0,0-1.2,3.31v8.24h-2.32V25.58a30.76,30.76,0,0,0-.23-4h2.21l.22,2.57a4.82,4.82,0,0,1,2-2.16,5.91,5.91,0,0,1,3-.75Q245.9,21.21,245.89,26.89Z"/><path class="cls-3" d="M249.38,34.27l.77-1.72a8,8,0,0,0,2.37,1.32,8.69,8.69,0,0,0,2.69.4,4.49,4.49,0,0,0,2.47-.56,1.82,1.82,0,0,0,.85-1.61,1.78,1.78,0,0,0-.58-1.38,4.2,4.2,0,0,0-1.88-.8l-2.43-.57a5.3,5.3,0,0,1-2.79-1.43,3.4,3.4,0,0,1-1-2.46,3.73,3.73,0,0,1,1.52-3.07,6.3,6.3,0,0,1,4-1.18,8.46,8.46,0,0,1,2.86.48,6.1,6.1,0,0,1,2.26,1.4l-.77,1.69a6.69,6.69,0,0,0-4.35-1.69,4.18,4.18,0,0,0-2.39.59,1.89,1.89,0,0,0-.84,1.64,1.87,1.87,0,0,0,.53,1.4,3.69,3.69,0,0,0,1.7.8l2.43.6a6.11,6.11,0,0,1,3,1.42,3.34,3.34,0,0,1,1,2.5,3.49,3.49,0,0,1-1.51,3,6.83,6.83,0,0,1-4.12,1.12A8.38,8.38,0,0,1,249.38,34.27Z"/><path class="cls-3" d="M267.39,23.38v7.86a3.11,3.11,0,0,0,.65,2.24,2.55,2.55,0,0,0,1.86.65,4.76,4.76,0,0,0,1.55-.26v2a6.52,6.52,0,0,1-2,.29A4.35,4.35,0,0,1,266.23,35a4.64,4.64,0,0,1-1.16-3.42V23.38h-2.8V21.55h2.8V17.86l2.32-.83v4.52h4.11v1.83Z"/><path class="cls-3" d="M286.34,28.67H275.79a6.17,6.17,0,0,0,1.27,4.14,4.61,4.61,0,0,0,3.62,1.4,7.25,7.25,0,0,0,4.63-1.69l.77,1.69a6.63,6.63,0,0,1-2.42,1.4,9.12,9.12,0,0,1-3,.52,7,7,0,0,1-5.29-2,7.5,7.5,0,0,1-1.91-5.45,8.6,8.6,0,0,1,.85-3.9,6.42,6.42,0,0,1,2.41-2.64,6.56,6.56,0,0,1,3.51-.94,5.63,5.63,0,0,1,4.49,1.87,7.64,7.64,0,0,1,1.63,5.16Zm-9-4.58a5.24,5.24,0,0,0-1.44,3.06h8.37a4.9,4.9,0,0,0-1.19-3.09,3.71,3.71,0,0,0-2.81-1A4.06,4.06,0,0,0,277.32,24.09Z"/><path class="cls-3" d="M297.86,21.38l-.06,2.11a4.65,4.65,0,0,0-1.51-.23,3.72,3.72,0,0,0-3.11,1.3,5,5,0,0,0-1,3.16v8.21h-2.32V25.58a30.76,30.76,0,0,0-.23-4h2.21l.22,2.66A4.38,4.38,0,0,1,293.8,22a4.9,4.9,0,0,1,2.74-.77A4.59,4.59,0,0,1,297.86,21.38Z"/><line class="cls-4" x1="183.68" x2="183.68" y2="36"/></g></g></svg>