<svg xmlns="http://www.w3.org/2000/svg" viewBox="0 0 325.18 45.33"><defs><style>.cls-1{fill:#555;}.cls-1,.cls-2{fill-rule:evenodd;}.cls-2{fill:#85d081;}.cls-3{font-size:14.34px;fill:#979797;font-family:Muli-Regular, Muli;}.cls-4{letter-spacing:0em;}.cls-5{letter-spacing:-0.01em;}.cls-6{font-size:28.58px;}.cls-7{letter-spacing:0.04em;}.cls-8{fill:none;stroke:#979797;stroke-miterlimit:10;stroke-width:0.5px;}</style></defs><title>hut-store-dortmund</title><g id="Ebene_2" data-name="Ebene 2"><g id="Ebene_2-2" data-name="Ebene 2"><g id="Logo_hut.de" data-name="Logo hut.de"><path id="H" class="cls-1" d="M75.82,1.77a.2.2,0,0,0-.2.2V18.4a.2.2,0,0,1-.2.2H61.59a.2.2,0,0,1-.2-.2V2a.2.2,0,0,0-.19-.2H59.78a.2.2,0,0,0-.19.2V37.14a.2.2,0,0,0,.19.2H61.2a.2.2,0,0,0,.19-.2V20.48a.2.2,0,0,1,.2-.2H75.42a.2.2,0,0,1,.2.2V37.14a.2.2,0,0,0,.2.2h1.41a.2.2,0,0,0,.2-.2V2a.2.2,0,0,0-.2-.2Z"/><path id="U" class="cls-1" d="M100.7,1.77a.2.2,0,0,0-.2.2V28.72c0,2.39-.37,4.32-2.15,6a7.74,7.74,0,0,1-5.43,1.71,7.74,7.74,0,0,1-5.39-1.71c-1.78-1.63-2.15-3.56-2.15-6V2a.2.2,0,0,0-.2-.2H83.77a.2.2,0,0,0-.2.2V28.43c0,3.35.68,5.35,2.42,7.1s4,2.54,7,2.54a9.35,9.35,0,0,0,6.94-2.54c1.73-1.75,2.41-3.75,2.41-7.1V2a.2.2,0,0,0-.2-.2Z"/><path id="T" class="cls-1" d="M106.14,1.77a.2.2,0,0,0-.2.2V3.25a.2.2,0,0,0,.2.2h7.37a.2.2,0,0,1,.2.2V37.14a.2.2,0,0,0,.2.2h1.41a.2.2,0,0,0,.2-.2V3.65a.2.2,0,0,1,.2-.2h7.37a.2.2,0,0,0,.2-.2V2a.2.2,0,0,0-.2-.2Z"/><path id="dot" class="cls-1" d="M124,34.53c-.12,0-.21.06-.21.13v2.57c0,.07.09.13.21.13h1.47c.11,0,.21-.06.21-.13V34.66c0-.07-.1-.13-.21-.13Z"/><path id="d" class="cls-1" d="M149.08,1.77a.2.2,0,0,0-.2.2V12c0,1.54,0,2.82,0,4a.19.19,0,0,1-.37.09,9.56,9.56,0,0,0-2.45-3.33,7,7,0,0,0-4.59-1.6,6.8,6.8,0,0,0-3.71,1.08A9.23,9.23,0,0,0,135,15.15a18.17,18.17,0,0,0-2.39,9.51A17.9,17.9,0,0,0,135,34.07,9.16,9.16,0,0,0,137.78,37a6.8,6.8,0,0,0,3.71,1.08,7.19,7.19,0,0,0,4.93-1.92,9.44,9.44,0,0,0,2.1-2.88.2.2,0,0,1,.38.09c0,1,0,2.27,0,3.89a.2.2,0,0,0,.2.2h1.32a.2.2,0,0,0,.2-.2V2a.2.2,0,0,0-.2-.2Zm-.2,22.8a17.12,17.12,0,0,1-1.86,8.1c-1.64,3.07-3.86,3.71-5.43,3.71-4.79,0-7.3-5.92-7.3-11.76v-.05a17.46,17.46,0,0,1,1.85-8.11c.93-1.69,2.63-3.71,5.45-3.71,1.57,0,3.79.65,5.43,3.71h0A16.72,16.72,0,0,1,148.88,24.57Z"/><path id="e" class="cls-1" d="M173.7,19.39a12.42,12.42,0,0,0-2.12-4.92A8,8,0,0,0,165,11.14a8.19,8.19,0,0,0-3.88.95,9.24,9.24,0,0,0-3.06,2.71,16.62,16.62,0,0,0-2.72,9.85c0,6.19,2.58,13.42,9.85,13.42A8.22,8.22,0,0,0,171,35.82a10.41,10.41,0,0,0,2.86-5.35h0a.2.2,0,0,0-.2-.24h-1.23a.2.2,0,0,0-.2.15c-1,4.46-4.27,6.05-7,6.05a7,7,0,0,1-6-3.22,14.77,14.77,0,0,1-2.14-8,.2.2,0,0,1,.2-.21H174a.19.19,0,0,0,.19-.2A25.49,25.49,0,0,0,173.7,19.39Zm-16.4,3.92a.2.2,0,0,1-.2-.21,13.79,13.79,0,0,1,2.2-7.17,6.58,6.58,0,0,1,10.81-.6c1.41,1.79,2.19,4.4,2.33,7.77a.2.2,0,0,1-.2.21Z"/><path id="Bildmarke" class="cls-2" d="M47.66,19.22A16.72,16.72,0,0,0,42.32,15a29.18,29.18,0,0,0-4-1.72,13.75,13.75,0,0,0-3.83-7.5,13.62,13.62,0,0,0-19.34,0,13.75,13.75,0,0,0-3.83,7.5,29.72,29.72,0,0,0-4,1.72A16.83,16.83,0,0,0,2,19.22a8.26,8.26,0,0,0-2,5.2,8.26,8.26,0,0,0,2,5.2,16.81,16.81,0,0,0,5.34,4.19c4.68,2.48,10.89,3.84,17.5,3.84s12.83-1.36,17.5-3.84a16.7,16.7,0,0,0,5.34-4.19,8.2,8.2,0,0,0,2-5.2,8.2,8.2,0,0,0-2-5.2M13,14.64A41,41,0,0,1,24.82,13a41.07,41.07,0,0,1,11.87,1.66c0,.3,0,.6,0,.91A11.93,11.93,0,0,1,33.23,24a11.83,11.83,0,0,1-16.82,0,11.93,11.93,0,0,1-3.49-8.47c0-.31,0-.61,0-.91m11.86-3.46a43.49,43.49,0,0,0-11.56,1.51,12,12,0,0,1,3.15-5.62,11.83,11.83,0,0,1,16.82,0,11.91,11.91,0,0,1,3.15,5.62,43.44,43.44,0,0,0-11.56-1.51M15.15,25.29a13.59,13.59,0,0,0,19.34,0,13.71,13.71,0,0,0,4-9.74v-.29a25.71,25.71,0,0,1,3,1.35c4,2.17,6.36,5,6.36,7.81s-2.32,5.64-6.36,7.81c-4.39,2.34-10.31,3.63-16.68,3.63S12.53,34.57,8.15,32.23c-4.05-2.17-6.37-5-6.37-7.81s2.32-5.64,6.37-7.81a24.29,24.29,0,0,1,3-1.35,2.81,2.81,0,0,0,0,.29,13.75,13.75,0,0,0,4,9.74"/></g><text class="cls-3" transform="translate(192.55 12.27)"><tspan class="cls-4">S</tspan><tspan x="8.89" y="0">to</tspan><tspan class="cls-5" x="22.11" y="0">r</tspan><tspan x="27.16" y="0">e</tspan><tspan class="cls-6"><tspan x="-2" y="25.25">Do</tspan><tspan class="cls-7" x="35.68" y="25.25">r</tspan><tspan x="47.14" y="25.25">tmund</tspan></tspan></text><line class="cls-8" x1="183.68" y1="1.6" x2="183.68" y2="37.6"/></g></g></svg>