<?xml version="1.0" encoding="utf-8"?>
<!-- Generator: Adobe Illustrator 21.1.0, SVG Export Plug-In . SVG Version: 6.00 Build 0)  -->
<svg version="1.1" id="Ebene_1" xmlns="http://www.w3.org/2000/svg" xmlns:xlink="http://www.w3.org/1999/xlink" x="0px" y="0px"
	 width="56px" height="56px" viewBox="0 0 56 56" style="enable-background:new 0 0 56 56;" xml:space="preserve">
<style type="text/css">
	.st0{fill:url(#SVGID_1_);}
	.st1{fill:url(#SVGID_2_);}
	.st2{fill:url(#SVGID_3_);}
</style>
<g>
	<linearGradient id="SVGID_1_" gradientUnits="userSpaceOnUse" x1="11.5306" y1="45.5338" x2="43.4056" y2="12.5338">
		<stop  offset="0" style="stop-color:#EA7F5D"/>
		<stop  offset="0.5934" style="stop-color:#DD537D"/>
		<stop  offset="1" style="stop-color:#D63A90"/>
	</linearGradient>
	<path class="st0" d="M27.5,21c4.4,0,8,3.6,8,8c0,4.4-3.6,8-8,8c-4.4,0-8-3.6-8-8C19.5,24.6,23.1,21,27.5,21 M27.5,19v2 M27.5,19
		L27.5,19 M27.5,21v-2 M27.5,21L27.5,21 M27.5,19c-5.5,0-10,4.5-10,10c0,5.5,4.5,10,10,10c5.5,0,10-4.5,10-10
		C37.5,23.5,33,19,27.5,19"/>
	<linearGradient id="SVGID_2_" gradientUnits="userSpaceOnUse" x1="11.7066" y1="45.7038" x2="43.5816" y2="12.7038">
		<stop  offset="0" style="stop-color:#EA7F5D"/>
		<stop  offset="0.5934" style="stop-color:#DD537D"/>
		<stop  offset="1" style="stop-color:#D63A90"/>
	</linearGradient>
	<path class="st1" d="M37.5,17.5H38V17v0h-0.5V17.5c0.8,0,1.5,0.7,1.5,1.5s-0.7,1.5-1.5,1.5S36,19.8,36,19
		C36,18.2,36.7,17.5,37.5,17.5z M37.5,16.5c-1.4,0-2.5,1.1-2.5,2.5c0,1.4,1.1,2.5,2.5,2.5S40,20.4,40,19S38.9,16.5,37.5,16.5l-0.5,0
		V17v0h0.5V16.5z"/>
	<linearGradient id="SVGID_3_" gradientUnits="userSpaceOnUse" x1="12.0382" y1="46.0241" x2="43.9132" y2="13.0241">
		<stop  offset="0" style="stop-color:#EA7F5D"/>
		<stop  offset="0.5934" style="stop-color:#DD537D"/>
		<stop  offset="1" style="stop-color:#D63A90"/>
	</linearGradient>
	<path class="st2" d="M28,13v-2h0L28,13c4.4,0,5.1,0,7.2,0.1c1.6,0.1,2.8,0.3,3.9,0.7c1.1,0.4,1.9,1,2.8,1.8
		c0.8,0.8,1.4,1.7,1.8,2.8c0.4,1.1,0.7,2.3,0.7,3.9c0.1,2.1,0.1,2.8,0.1,7.2c0,4.4,0,5.1-0.1,7.2c-0.1,1.6-0.3,2.8-0.7,3.9
		c-0.4,1.1-1,1.9-1.8,2.8c-0.8,0.8-1.7,1.4-2.8,1.8c-1.1,0.4-2.3,0.7-3.9,0.7C33.1,46,32.4,46,28,46c-4.4,0-5.1,0-7.2-0.1
		c-1.6-0.1-2.8-0.3-3.9-0.7c-1.1-0.4-1.9-1-2.8-1.8c-0.8-0.8-1.4-1.7-1.8-2.8c-0.4-1.1-0.7-2.3-0.7-3.9c-0.1-2-0.1-2.8-0.1-7.2
		c0-4.4,0-5.1,0.1-7.2c0.1-1.6,0.3-2.8,0.7-3.9c0.4-1.1,1-1.9,1.8-2.8c0.8-0.8,1.7-1.4,2.8-1.8c1.1-0.4,2.3-0.7,3.9-0.7
		C22.9,13,23.6,13,28,13z M28,11c-4.4,0-5.2,0-7.3,0.1c-1.8,0.1-3.2,0.4-4.6,0.9c-1.3,0.5-2.4,1.2-3.4,2.2c-1,1-1.7,2.1-2.2,3.4
		C10,19,9.7,20.4,9.6,22.2c-0.1,2.1-0.1,2.9-0.1,7.3c0,4.4,0,5.2,0.1,7.3c0.1,1.8,0.4,3.2,0.9,4.6c0.5,1.3,1.2,2.4,2.2,3.4
		c1,1,2.1,1.7,3.4,2.2c1.3,0.5,2.7,0.8,4.6,0.9C22.8,48,23.6,48,28,48c4.4,0,5.2,0,7.3-0.1c1.8-0.1,3.2-0.4,4.6-0.9
		c1.3-0.5,2.4-1.2,3.4-2.2c1-1,1.7-2.1,2.2-3.4c0.5-1.3,0.8-2.7,0.9-4.6c0.1-2.1,0.1-2.9,0.1-7.3c0-4.4,0-5.2-0.1-7.3
		c-0.1-1.8-0.4-3.2-0.9-4.6c-0.5-1.3-1.2-2.4-2.2-3.4c-1-1-2.1-1.7-3.4-2.2c-1.3-0.5-2.7-0.8-4.6-0.9C33.2,11,32.4,11,28,11l0,1v1h0
		v-1V11z"/>
</g>
</svg>
