<svg xmlns="http://www.w3.org/2000/svg" viewBox="0 0 174.18 36.3"><defs><style>.cls-1{fill:#555;}.cls-1,.cls-2{fill-rule:evenodd;}.cls-2{fill:#85d081;}</style></defs><title>onlineshop</title><g id="Ebene_2" data-name="Ebene 2"><g id="Ebene_2-2" data-name="Ebene 2"><g id="Logo_hut.de" data-name="Logo hut.de"><path id="H" class="cls-1" d="M75.82,0a.2.2,0,0,0-.2.2V16.63a.2.2,0,0,1-.2.2H61.59a.2.2,0,0,1-.2-.2V.2A.2.2,0,0,0,61.2,0H59.78a.2.2,0,0,0-.19.2V35.38a.2.2,0,0,0,.19.2H61.2a.2.2,0,0,0,.19-.2V18.71a.2.2,0,0,1,.2-.2H75.42a.2.2,0,0,1,.2.2V35.38a.2.2,0,0,0,.2.2h1.41a.2.2,0,0,0,.2-.2V.2a.2.2,0,0,0-.2-.2Z"/><path id="U" class="cls-1" d="M100.7,0a.2.2,0,0,0-.2.2V27c0,2.39-.37,4.32-2.15,5.95a7.74,7.74,0,0,1-5.43,1.71,7.74,7.74,0,0,1-5.39-1.71c-1.78-1.63-2.15-3.56-2.15-5.95V.2a.2.2,0,0,0-.2-.2H83.77a.2.2,0,0,0-.2.2V26.66c0,3.36.68,5.35,2.42,7.11s4,2.53,7,2.53a9.35,9.35,0,0,0,6.94-2.54c1.73-1.75,2.41-3.74,2.41-7.1V.2a.2.2,0,0,0-.2-.2Z"/><path id="T" class="cls-1" d="M106.14,0a.2.2,0,0,0-.2.2V1.48a.2.2,0,0,0,.2.2h7.37a.2.2,0,0,1,.2.2v33.5a.2.2,0,0,0,.2.2h1.41a.2.2,0,0,0,.2-.2V1.88a.2.2,0,0,1,.2-.2h7.37a.2.2,0,0,0,.2-.2V.2a.2.2,0,0,0-.2-.2Z"/><path id="dot" class="cls-1" d="M124,32.76c-.12,0-.21.06-.21.13v2.57c0,.07.09.13.21.13h1.47c.11,0,.21-.06.21-.13V32.89c0-.07-.1-.13-.21-.13Z"/><path id="d" class="cls-1" d="M149.08,0a.2.2,0,0,0-.2.2v10c0,1.54,0,2.82,0,4a.19.19,0,0,1-.37.09A9.65,9.65,0,0,0,146.08,11a7,7,0,0,0-4.59-1.6,6.89,6.89,0,0,0-3.71,1.08A9.23,9.23,0,0,0,135,13.38a18.2,18.2,0,0,0-2.39,9.52A17.92,17.92,0,0,0,135,32.31a9.23,9.23,0,0,0,2.81,2.91,6.8,6.8,0,0,0,3.71,1.08,7.19,7.19,0,0,0,4.93-1.92,9.32,9.32,0,0,0,2.1-2.88.2.2,0,0,1,.38.09c0,1,0,2.27,0,3.89a.2.2,0,0,0,.2.2h1.32a.2.2,0,0,0,.2-.2V.2a.2.2,0,0,0-.2-.2Zm-.2,22.8A17.12,17.12,0,0,1,147,30.9c-1.64,3.07-3.86,3.71-5.43,3.71-4.79,0-7.3-5.91-7.3-11.76V22.8a17.46,17.46,0,0,1,1.85-8.11,6.32,6.32,0,0,1,5.45-3.7c1.57,0,3.79.64,5.43,3.71h0A16.72,16.72,0,0,1,148.88,22.8Z"/><path id="e" class="cls-1" d="M173.7,17.63a12.46,12.46,0,0,0-2.12-4.93A8,8,0,0,0,165,9.38a8.18,8.18,0,0,0-3.88.94A9.17,9.17,0,0,0,158.07,13a16.6,16.6,0,0,0-2.72,9.85c0,6.19,2.58,13.41,9.85,13.41A8.18,8.18,0,0,0,171,34.05a10.33,10.33,0,0,0,2.86-5.35h0a.2.2,0,0,0-.2-.24h-1.23a.19.19,0,0,0-.2.16c-1,4.45-4.27,6-7,6a7,7,0,0,1-6-3.22,14.77,14.77,0,0,1-2.14-8,.2.2,0,0,1,.2-.21H174a.19.19,0,0,0,.19-.2A25.33,25.33,0,0,0,173.7,17.63Zm-16.4,3.91a.19.19,0,0,1-.2-.21,13.82,13.82,0,0,1,2.2-7.17,6.58,6.58,0,0,1,10.81-.6c1.41,1.79,2.19,4.4,2.33,7.77a.19.19,0,0,1-.2.21Z"/><path id="Bildmarke" class="cls-2" d="M47.66,17.45a16.7,16.7,0,0,0-5.34-4.19,28,28,0,0,0-4-1.73A13.72,13.72,0,0,0,34.49,4,13.59,13.59,0,0,0,15.15,4a13.72,13.72,0,0,0-3.83,7.49,28.51,28.51,0,0,0-4,1.73A16.81,16.81,0,0,0,2,17.45a8.26,8.26,0,0,0-2,5.2,8.26,8.26,0,0,0,2,5.2,16.83,16.83,0,0,0,5.34,4.2,38.27,38.27,0,0,0,17.5,3.84,38.24,38.24,0,0,0,17.5-3.84,16.72,16.72,0,0,0,5.34-4.2,8.2,8.2,0,0,0,2-5.2,8.2,8.2,0,0,0-2-5.2M13,12.87a41,41,0,0,1,11.86-1.66,41.07,41.07,0,0,1,11.87,1.66c0,.3,0,.61,0,.91a11.93,11.93,0,0,1-3.49,8.47,11.83,11.83,0,0,1-16.82,0,11.93,11.93,0,0,1-3.49-8.47c0-.3,0-.61,0-.91M24.82,9.41a43.08,43.08,0,0,0-11.56,1.52A12,12,0,0,1,16.41,5.3a11.83,11.83,0,0,1,16.82,0,11.94,11.94,0,0,1,3.15,5.63A43,43,0,0,0,24.82,9.41M15.15,23.52a13.59,13.59,0,0,0,19.34,0,13.71,13.71,0,0,0,4-9.74v-.29a25.71,25.71,0,0,1,3,1.35c4,2.17,6.36,5,6.36,7.81s-2.32,5.64-6.36,7.81c-4.39,2.34-10.31,3.63-16.68,3.63S12.53,32.8,8.15,30.46c-4.05-2.17-6.37-5-6.37-7.81S4.1,17,8.15,14.84a24.29,24.29,0,0,1,3-1.35,2.81,2.81,0,0,0,0,.29,13.75,13.75,0,0,0,4,9.74"/></g></g></g></svg>