<svg xmlns="http://www.w3.org/2000/svg" viewBox="0 0 51.56 36.31"><defs><style>.cls-1,.cls-2{fill:none;stroke:#979797;stroke-miterlimit:10;stroke-width:2px;}.cls-1{stroke-linecap:round;}.cls-3{fill:#979797;}</style></defs><title>Element 11</title><g id="Ebene_2" data-name="Ebene 2"><g id="Ebene_1-2" data-name="Ebene 1"><g id="Schnelle_Lieferung" data-name="Schnelle Lieferung"><path class="cls-1" d="M14.49,1,18,1.25A4.84,4.84,0,0,1,21.39,4c.75,2,7.36,22.29,7.36,22.29"/><line class="cls-1" x1="50.56" y1="23.81" x2="34.2" y2="29.11"/><circle class="cls-2" cx="29.9" cy="30.73" r="4.58"/><rect class="cls-1" x="30.88" y="7.88" width="14.35" height="14.35" rx="1.66" ry="1.66" transform="translate(-2.79 12.47) rotate(-17.96)"/><line class="cls-1" x1="14.87" y1="10.15" x2="1" y2="10.15"/><line class="cls-1" x1="18.9" y1="16.11" x2="9.08" y2="16.11"/><line class="cls-1" x1="15.81" y1="22.14" x2="4.17" y2="22.14"/><path class="cls-3" d="M44.17,17.18a.1.1,0,0,0-.05-.08l-1.21-.62a.07.07,0,0,0-.1,0l-.63,1.22a.08.08,0,0,0,0,.08.08.08,0,0,0,.09,0l.47-.15.28.89a.09.09,0,0,0,.1.05l.75-.24a.09.09,0,0,0,0-.1l-.29-.89.47-.15A.11.11,0,0,0,44.17,17.18Z"/><path class="cls-3" d="M41.87,17.92a.1.1,0,0,0,0-.08l-1.21-.62a.07.07,0,0,0-.1,0l-.63,1.22a.08.08,0,0,0,0,.08.08.08,0,0,0,.09,0l.47-.16.28.9a.09.09,0,0,0,.1.05l.75-.24a.09.09,0,0,0,.05-.1l-.29-.89.47-.15A.11.11,0,0,0,41.87,17.92Z"/><rect class="cls-3" x="38.12" y="9.16" width="3.57" height="1.2" rx="0.35" ry="0.35" transform="matrix(0.95, -0.31, 0.31, 0.95, -1.07, 12.69)"/></g></g></g></svg>